<svg width="228" height="118" viewBox="0 0 228 118" fill="none" xmlns="http://www.w3.org/2000/svg">
<path d="M47.82 14C48.58 14.76 48.96 15.74 48.96 16.94C48.96 17.94 48.74 18.96 48.3 20L34.14 56L33.48 56.3L25.56 31.16L15.78 56L15.12 56.3L1.8 14H6.9L17.64 49.52L25.26 30.2L20.16 14H25.26L36 49.52L47.58 20C48.02 19 48.24 17.96 48.24 16.88C48.24 15.8 47.94 14.96 47.34 14.36L47.82 14ZM54.8198 41.36C54.8198 46.32 55.6798 49.96 57.3998 52.28C59.1598 54.6 61.4598 55.76 64.2998 55.76C68.2998 55.76 71.8598 55.16 74.9798 53.96L75.1598 54.38C71.9598 55.62 68.3398 56.24 64.2998 56.24C60.2998 56.24 57.0398 55.04 54.5198 52.64C51.9998 50.24 50.7398 46.54 50.7398 41.54C50.7398 36.54 52.0598 32.66 54.6998 29.9C57.3398 27.14 60.6998 25.76 64.7798 25.76C68.0598 25.76 70.8198 26.74 73.0598 28.7C75.2998 30.66 76.4198 33.56 76.4198 37.4C76.4198 37.6 76.4198 37.8 76.4198 38H54.9998C54.8798 39.08 54.8198 40.2 54.8198 41.36ZM72.3398 37.52C72.2998 33.68 71.5598 30.84 70.1198 29C68.6798 27.16 66.8198 26.24 64.5398 26.24C62.2598 26.24 60.2198 27.24 58.4198 29.24C56.6598 31.24 55.5398 34 55.0598 37.52H72.3398ZM105.461 56C102.741 56 100.881 55.48 99.8813 54.44C98.9613 53.56 98.5013 52.8 98.5013 52.16V50.9C96.5413 54.46 93.4013 56.24 89.0813 56.24C84.0413 56.24 81.1813 53.96 80.5013 49.4C80.4213 48.92 80.3813 48.44 80.3813 47.96C80.3813 47.44 80.4613 46.88 80.6213 46.28C80.7813 45.68 81.2413 45.02 82.0013 44.3C83.5213 42.86 86.8613 41.98 92.0213 41.66C93.3013 41.54 94.4813 41.48 95.5613 41.48C96.6413 41.48 97.6213 41.52 98.5013 41.6V31.64C98.4213 31.6 98.4213 31.42 98.5013 31.1C98.5813 30.74 98.5013 30.3 98.2613 29.78C98.0613 29.22 97.7813 28.68 97.4213 28.16C97.0613 27.64 96.4213 27.2 95.5013 26.84C94.5812 26.44 93.3813 26.24 91.9013 26.24C90.4213 26.24 88.6813 26.52 86.6813 27.08C84.7213 27.6 83.2813 28.12 82.3613 28.64L82.1213 28.22C85.6813 26.58 89.3013 25.76 92.9813 25.76C97.1013 25.76 99.8213 26.5 101.141 27.98C102.181 29.14 102.701 30.36 102.701 31.64V51.74C102.701 52.9 102.921 53.8 103.361 54.44C103.841 55.04 104.321 55.36 104.801 55.4L105.461 55.52H107.321V56H105.461ZM90.0413 55.76C92.1613 55.76 94.0613 55.04 95.7413 53.6C97.4613 52.12 98.3813 50.7 98.5013 49.34V42.08C97.4213 42 96.3213 41.96 95.2013 41.96C94.1213 41.96 93.0413 42.02 91.9613 42.14C88.9213 42.5 86.9413 43.18 86.0213 44.18C85.1013 45.18 84.6413 46.56 84.6413 48.32C84.6413 48.64 84.6613 49 84.7013 49.4C85.0613 53.64 86.8413 55.76 90.0413 55.76ZM122.083 28.58V27.32C120.283 28.04 118.643 29.5 117.163 31.7C115.683 33.86 114.903 35.9 114.823 37.82V56H110.623V26H114.823V35.54C115.463 33.22 116.683 31.04 118.483 29C120.283 26.92 122.323 25.84 124.603 25.76H124.843C125.643 25.76 126.303 26.04 126.823 26.6C127.383 27.12 127.663 27.78 127.663 28.58C127.663 29.38 127.383 30.04 126.823 30.56C126.303 31.08 125.643 31.34 124.843 31.34C124.043 31.34 123.383 31.08 122.863 30.56C122.343 30.04 122.083 29.38 122.083 28.58ZM137.765 56H132.785V14H137.765V33.32H157.265V14H162.245V56H157.265V33.92H137.765V56ZM171.834 49.1C171.834 52.26 172.674 54.28 174.354 55.16C175.154 55.56 176.174 55.76 177.414 55.76C179.934 55.76 182.174 54.8 184.134 52.88C186.134 50.96 187.214 49.18 187.374 47.54V26H191.574V51.74C191.574 52.9 191.794 53.8 192.234 54.44C192.714 55.04 193.194 55.36 193.674 55.4L194.334 55.52H196.194V56H192.534C190.894 56 189.634 55.64 188.754 54.92C187.914 54.2 187.474 53.48 187.434 52.76L187.374 51.74V49.16C186.654 50.88 185.374 52.5 183.534 54.02C181.694 55.5 179.674 56.24 177.474 56.24C175.314 56.24 173.534 56.04 172.134 55.64C170.774 55.2 169.794 54.6 169.194 53.84C168.154 52.6 167.634 51 167.634 49.04V26H171.834V49.1ZM199.216 11.06H203.416V33.44C204.096 31.6 205.356 29.86 207.196 28.22C209.036 26.58 211.116 25.76 213.436 25.76C221.556 25.76 225.616 30.52 225.616 40.04C225.616 50.84 220.376 56.24 209.896 56.24C206.816 56.24 203.256 55.74 199.216 54.74V11.06ZM213.376 26.24C210.896 26.24 208.656 27.32 206.656 29.48C204.656 31.6 203.576 33.52 203.416 35.24V54.38C205.856 55.3 207.996 55.76 209.836 55.76C217.556 55.76 221.416 50.5 221.416 39.98C221.416 30.82 218.736 26.24 213.376 26.24Z" fill="url(#paint0_linear_123_13)"/>
<path d="M87.6 78.04H90.4V92.96C90.8533 91.7333 91.6933 90.5733 92.92 89.48C94.1467 88.3867 95.5333 87.84 97.08 87.84C102.493 87.84 105.2 91.0133 105.2 97.36C105.2 104.56 101.707 108.16 94.72 108.16C92.6667 108.16 90.2933 107.827 87.6 107.16V78.04ZM97.04 88.16C95.3867 88.16 93.8933 88.88 92.56 90.32C91.2267 91.7333 90.5067 93.0133 90.4 94.16V106.92C92.0267 107.533 93.4533 107.84 94.68 107.84C99.8267 107.84 102.4 104.333 102.4 97.32C102.4 91.2133 100.613 88.16 97.04 88.16ZM112.09 115.16C111.237 117.053 110.184 118 108.93 118C108.37 118 107.717 117.907 106.97 117.72V117.4C107.584 117.56 108.13 117.64 108.61 117.64C109.97 117.64 111.01 116.813 111.73 115.16L115.09 108H115.05L107.61 88H110.41L116.61 104.68L122.73 92C123.05 91.44 123.21 90.7733 123.21 90C123.21 89.2267 122.997 88.64 122.57 88.24L122.81 88C122.917 88.0533 123.05 88.2133 123.21 88.48C123.397 88.7467 123.504 88.9867 123.53 89.2C123.584 89.4133 123.61 89.6133 123.61 89.8C123.61 90.52 123.45 91.2533 123.13 92L115.45 108L112.09 115.16ZM139.777 80.32C142.87 80.1067 145.59 80 147.937 80C154.55 80 157.857 82.3333 157.857 87C157.857 89.16 157.297 91.0533 156.177 92.68C155.59 93.56 154.683 94.2667 153.457 94.8C152.23 95.3067 150.75 95.56 149.017 95.56H143.097V108H139.777V80.32ZM147.977 80.4C146.43 80.4 144.803 80.4933 143.097 80.68V95.16H149.017C152.777 95 154.657 92.3067 154.657 87.08C154.657 84.9467 154.097 83.3067 152.977 82.16C151.857 80.9867 150.19 80.4 147.977 80.4ZM177.206 108C175.393 108 174.153 107.653 173.486 106.96C172.873 106.373 172.566 105.867 172.566 105.44V104.6C171.259 106.973 169.166 108.16 166.286 108.16C162.926 108.16 161.019 106.64 160.566 103.6C160.513 103.28 160.486 102.96 160.486 102.64C160.486 102.293 160.539 101.92 160.646 101.52C160.753 101.12 161.059 100.68 161.566 100.2C162.579 99.24 164.806 98.6533 168.246 98.44C169.099 98.36 169.886 98.32 170.606 98.32C171.326 98.32 171.979 98.3467 172.566 98.4V91.76C172.513 91.7333 172.513 91.6133 172.566 91.4C172.619 91.16 172.566 90.8667 172.406 90.52C172.273 90.1467 172.086 89.7867 171.846 89.44C171.606 89.0933 171.179 88.8 170.566 88.56C169.953 88.2933 169.153 88.16 168.166 88.16C167.179 88.16 166.019 88.3467 164.686 88.72C163.379 89.0667 162.419 89.4133 161.806 89.76L161.646 89.48C164.019 88.3867 166.433 87.84 168.886 87.84C171.633 87.84 173.446 88.3333 174.326 89.32C175.019 90.0933 175.366 90.9067 175.366 91.76V105.16C175.366 105.933 175.513 106.533 175.806 106.96C176.126 107.36 176.446 107.573 176.766 107.6L177.206 107.68H178.446V108H177.206ZM166.926 107.84C168.339 107.84 169.606 107.36 170.726 106.4C171.873 105.413 172.486 104.467 172.566 103.56V98.72C171.846 98.6667 171.113 98.64 170.366 98.64C169.646 98.64 168.926 98.68 168.206 98.76C166.179 99 164.859 99.4533 164.246 100.12C163.633 100.787 163.326 101.707 163.326 102.88C163.326 103.093 163.339 103.333 163.366 103.6C163.606 106.427 164.793 107.84 166.926 107.84ZM188.287 89.72V88.88C187.087 89.36 185.994 90.3333 185.007 91.8C184.02 93.24 183.5 94.6 183.447 95.88V108H180.647V88H183.447V94.36C183.874 92.8133 184.687 91.36 185.887 90C187.087 88.6133 188.447 87.8933 189.967 87.84H190.127C190.66 87.84 191.1 88.0267 191.447 88.4C191.82 88.7467 192.007 89.1867 192.007 89.72C192.007 90.2533 191.82 90.6933 191.447 91.04C191.1 91.3867 190.66 91.56 190.127 91.56C189.594 91.56 189.154 91.3867 188.807 91.04C188.46 90.6933 188.287 90.2533 188.287 89.72ZM194.822 88.32V88H195.662V84H198.462V88H204.582V88.32H198.462V102.88C198.462 104.613 198.649 105.867 199.022 106.64C199.422 107.413 200.235 107.8 201.462 107.8C202.715 107.8 203.982 107.547 205.262 107.04L205.382 107.36C204.049 107.867 202.515 108.12 200.782 108.12C199.075 108.12 197.795 107.773 196.942 107.08C196.089 106.36 195.662 104.947 195.662 102.84V88.32H194.822ZM223.97 108C222.877 108 222.037 107.76 221.45 107.28C220.89 106.8 220.597 106.32 220.57 105.84L220.53 105.16V92.6C220.53 90.4933 219.97 89.1467 218.85 88.56C218.317 88.2933 217.637 88.16 216.81 88.16C215.157 88.16 213.664 88.84 212.33 90.2C211.024 91.5333 210.37 92.7333 210.37 93.8V108H207.57V78.04H210.37V92.56C210.797 91.4133 211.61 90.3467 212.81 89.36C214.01 88.3467 215.357 87.84 216.85 87.84C219.437 87.84 221.157 88.2933 222.01 89.2C222.89 90.08 223.33 91.2267 223.33 92.64V105.16C223.33 105.933 223.477 106.533 223.77 106.96C224.09 107.36 224.397 107.573 224.69 107.6L225.17 107.68H226.41V108H223.97Z" fill="url(#paint1_linear_123_13)"/>
<defs>
<linearGradient id="paint0_linear_123_13" x1="114" y1="0" x2="114" y2="71" gradientUnits="userSpaceOnUse">
<stop stop-color="#2B2B2B"/>
<stop offset="1" stop-color="#ABABAB"/>
</linearGradient>
<linearGradient id="paint1_linear_123_13" x1="157" y1="71" x2="157" y2="118" gradientUnits="userSpaceOnUse">
<stop stop-color="#2B2B2B"/>
<stop offset="1" stop-color="#ABABAB"/>
</linearGradient>
</defs>
</svg>
